<?xml version="1.0" encoding="UTF-8" standalone="no"?><!DOCTYPE svg PUBLIC "-//W3C//DTD SVG 1.1//EN" "http://www.w3.org/Graphics/SVG/1.1/DTD/svg11.dtd"><svg width="100%" height="100%" viewBox="0 0 8000 4500" version="1.1" xmlns="http://www.w3.org/2000/svg" xmlns:xlink="http://www.w3.org/1999/xlink" xml:space="preserve" xmlns:serif="http://www.serif.com/" style="fill-rule:evenodd;clip-rule:evenodd;stroke-linecap:round;stroke-linejoin:round;stroke-miterlimit:1.5;"><g id="Layer1"><path d="M5171.29,977.952c702.062,646.451 747.211,1741.27 100.761,2443.34c-646.451,702.062 -1741.27,747.211 -2443.34,100.761c-702.062,-646.451 -747.211,-1741.27 -100.761,-2443.34c646.451,-702.062 1741.27,-747.211 2443.34,-100.761Z" style="fill:url(#_Radial1);stroke:#3882ce;stroke-width:4.17px;"/><path id="inner-top" serif:id="inner top" d="M2459.59,2187.15l-0.17,4.398c527.894,585.283 1892.88,-499.029 3082.08,81.465l0.067,-5.14c-9.576,844.961 -696.651,1527.96 -1541.56,1527.96c-850.869,0 -1541.67,-692.664 -1541.67,-1545.83c0,-21.073 0.422,-42.049 1.256,-62.852Zm3082.01,77.832l-0.019,1.666l0.037,-4.044l-0.018,2.378Zm0.039,-4.989l-0.007,0.927l0.021,-3.862l-0.014,2.935Zm0.022,-4.573l0.01,-5.418l-0.008,4.997l-0.002,0.421Zm-3081.88,-72.742l-0.16,3.849l0.047,-1.193l0.113,-2.656Zm0.201,-4.529l-0.151,3.353l0.048,-1.116l0.103,-2.237Zm0.215,-4.575l-0.139,2.9l0.048,-1.031l0.091,-1.869Zm0.231,-4.611l-0.126,2.479l0.046,-0.938l0.08,-1.541Zm0.247,-4.641l-0.113,2.081l0.044,-0.834l0.069,-1.247Zm0.261,-4.665l-0.097,1.702l0.04,-0.721l0.057,-0.981Zm0.277,-4.684l-0.081,1.333l0.035,-0.595l0.046,-0.738Zm0.291,-4.702l-0.061,0.974l0.028,-0.457l0.033,-0.517Zm0.307,-4.714l-0.041,0.615l0.02,-0.303l0.021,-0.312Zm0.322,-4.726l-0.017,0.254l0.009,-0.131l0.008,-0.123Z" style="fill:url(#_Linear2);stroke:url(#_Linear3);stroke-width:4.17px;"/><path id="inner-bot" serif:id="inner bot" d="M2459.42,2191.55c30.637,-826.075 709.197,-1487.38 1540.58,-1487.38c850.869,0 1541.67,692.664 1541.67,1545.83c0,7.679 -0.056,15.344 -0.17,23.011c-1189.19,-580.494 -2554.18,503.818 -3082.08,-81.465Z" style="fill:url(#_Linear4);"/><text x="2865.71px" y="2462.5px" style="font-family:'TimesNewRomanPSMT', 'Times New Roman', serif;font-size:1749.38px;fill:#fff;">N</text><text x="3860.93px" y="3345.95px" style="font-family:'TimesNewRomanPSMT', 'Times New Roman', serif;font-size:1749.38px;fill:#fff;">W</text></g><defs><radialGradient id="_Radial1" cx="0" cy="0" r="1" gradientUnits="userSpaceOnUse" gradientTransform="matrix(2544.1,2342.57,-2342.57,2544.1,2727.95,1078.71)"><stop offset="0" style="stop-color:#4a85c8;stop-opacity:1"/><stop offset="1" style="stop-color:#320a63;stop-opacity:1"/></radialGradient><linearGradient id="_Linear2" x1="0" y1="0" x2="1" y2="0" gradientUnits="userSpaceOnUse" gradientTransform="matrix(3083.33,0,0,1699.79,2458.33,2945.94)"><stop offset="0" style="stop-color:#4883c6;stop-opacity:1"/><stop offset="1" style="stop-color:#280753;stop-opacity:1"/></linearGradient><linearGradient id="_Linear3" x1="0" y1="0" x2="1" y2="0" gradientUnits="userSpaceOnUse" gradientTransform="matrix(3083.33,0,0,1699.79,2458.33,2945.94)"><stop offset="0" style="stop-color:#37438a;stop-opacity:0.33"/><stop offset="1" style="stop-color:#000;stop-opacity:1"/></linearGradient><linearGradient id="_Linear4" x1="0" y1="0" x2="1" y2="0" gradientUnits="userSpaceOnUse" gradientTransform="matrix(3082.25,0,0,1666.86,2459.42,1537.6)"><stop offset="0" style="stop-color:#2e015d;stop-opacity:1"/><stop offset="1" style="stop-color:#3670cb;stop-opacity:1"/></linearGradient></defs></svg>